<svg width="24" height="24" viewBox="0 0 24 24" fill="none" xmlns="http://www.w3.org/2000/svg">
<g clip-path="url(#clip0_59_552)">
<path d="M13.4593 5.96124C13.5256 5.86254 13.6489 5.7323 13.8293 5.57054C14.3072 5.1414 14.841 4.9658 15.4306 5.04375C15.6175 5.0685 15.7612 5.08739 15.8618 5.10042C16.165 5.13914 16.507 5.08606 16.8008 4.9372C17.0097 4.83157 17.1396 4.76493 17.1906 4.73726C17.1939 4.73548 17.1967 4.73261 17.1986 4.72898C17.2005 4.72535 17.2015 4.72113 17.2014 4.71684C17.2014 4.71256 17.2002 4.70839 17.1982 4.70485C17.1961 4.70132 17.1933 4.69857 17.1899 4.69695C16.928 4.56366 16.6742 4.46322 16.4285 4.39564C16 4.27725 15.5795 4.29241 15.1671 4.44114C15.1646 4.44198 15.1618 4.44176 15.1594 4.44053C15.157 4.4393 15.1549 4.43713 15.1537 4.43439C15.1525 4.43165 15.1521 4.42852 15.1526 4.42552C15.1532 4.42253 15.1546 4.41987 15.1567 4.41799C15.6411 3.95386 16.165 3.70284 16.8015 3.75951C17.0329 3.77986 17.2559 3.87444 17.5275 3.97102C17.8748 4.09394 18.2454 4.11948 18.5743 4.03647C18.8856 3.95798 19.1846 3.89014 19.4714 3.83294C19.4814 3.83096 19.4909 3.82616 19.4991 3.81894C19.5072 3.81172 19.5138 3.80229 19.5183 3.79143C19.5785 3.64484 19.6649 3.51367 19.7777 3.39794C19.8392 3.33488 19.9725 3.20571 20.1776 3.01043C20.1833 3.00504 20.1901 3.00159 20.1973 3.00043C20.2045 2.99927 20.2118 3.00046 20.2185 3.00386C20.2252 3.00727 20.231 3.01276 20.2352 3.01975C20.2394 3.02674 20.242 3.03497 20.2426 3.04355L20.2611 3.31094C20.2615 3.31557 20.2629 3.31999 20.2653 3.32369C20.2677 3.32738 20.2709 3.33019 20.2746 3.33179C20.2783 3.33338 20.2822 3.33369 20.2861 3.33269C20.2899 3.33168 20.2934 3.32939 20.2962 3.3261L20.4475 3.14731C20.4523 3.14148 20.4584 3.13744 20.4651 3.13568C20.4718 3.13391 20.4788 3.13451 20.4853 3.13739C20.4917 3.14027 20.4973 3.14531 20.5013 3.15189C20.5054 3.15847 20.5077 3.16631 20.5081 3.17445C20.5222 3.46099 20.4387 3.73197 20.34 4.00215C20.3354 4.01462 20.3336 4.02822 20.3347 4.04168C20.3357 4.05515 20.3396 4.06804 20.346 4.07917C20.4961 4.34017 20.6311 4.56805 20.751 4.7628C20.7796 4.80949 20.8026 4.86417 20.8275 4.92363C20.8385 4.94992 20.8476 4.97715 20.8548 5.00504C20.9213 5.25966 20.969 5.4161 20.998 5.47436C21.25 5.9796 21.5933 6.62292 21.8244 7.18124C21.8657 7.28074 21.8768 7.40193 21.8577 7.5448C21.856 7.55882 21.8524 7.57241 21.8473 7.58511C21.7988 7.70962 21.7525 7.85103 21.7085 8.00933C21.6586 8.18733 21.5546 8.27326 21.3965 8.26714C21.2833 8.26288 21.1758 8.2577 21.0741 8.25158C20.9378 8.24333 20.8501 8.16418 20.811 8.01412C20.7732 7.86766 20.7749 7.82057 20.6856 7.72998C20.4267 7.46738 20.2158 7.26412 20.0529 7.12018C19.9934 7.06777 19.9447 7.0369 19.9067 7.02759C19.5678 6.94578 19.2905 6.88312 19.081 6.52994C19.0793 6.52712 19.0772 6.52472 19.0748 6.52287C19.0723 6.52102 19.0696 6.51976 19.0668 6.51917C19.0639 6.51857 19.061 6.51866 19.0582 6.51941C19.0553 6.52016 19.0527 6.52157 19.0503 6.52355C18.8324 6.7066 18.6661 6.94006 18.5513 7.22394C18.3622 7.69193 18.1974 8.16551 18.0568 8.64467C17.9735 8.92882 17.892 9.14073 17.8128 9.39974C17.7967 9.45277 17.791 9.50958 17.7963 9.56576C17.8603 10.2258 17.861 10.8915 17.6094 11.5105C17.6073 11.5156 17.6061 11.5212 17.606 11.5269C17.6058 11.5326 17.6066 11.5382 17.6083 11.5435C17.6101 11.5488 17.6127 11.5536 17.6161 11.5576C17.6194 11.5616 17.6235 11.5647 17.6279 11.5668C17.7651 11.6317 17.9236 11.722 18.1033 11.8377C18.458 12.066 18.7575 12.1893 19.2299 12.3881C19.4118 12.4643 19.5274 12.5828 19.5782 12.8215C19.6196 13.0149 19.6408 13.1959 19.6419 13.3646C19.6424 13.4309 19.6193 13.4931 19.5728 13.5514C19.3923 13.7785 19.2865 13.9405 19.1773 14.2043C19.0304 14.5595 18.7724 15.1158 18.6346 15.5923C18.5497 15.8852 18.3664 15.8533 18.1551 15.8936C17.9476 15.9331 17.7724 16.062 17.5544 16.2193C17.5216 16.2429 17.442 16.271 17.3156 16.3035C17.1536 16.3452 16.9848 16.3827 16.8092 16.416C16.7955 16.4186 16.7816 16.4153 16.7698 16.4068C16.758 16.3983 16.7492 16.3852 16.7449 16.3697C16.7381 16.3458 16.7365 16.3122 16.7401 16.2691C16.7738 15.8613 16.9015 15.5034 17.1232 15.1956C17.1321 15.1832 17.1432 15.1731 17.1557 15.1661C17.1681 15.1591 17.1818 15.1553 17.1956 15.1549C17.409 15.1504 17.5815 15.2386 17.7131 15.4195C17.7218 15.4314 17.7332 15.4401 17.7459 15.4447C17.7585 15.4492 17.7721 15.4495 17.7849 15.4454C17.899 15.409 17.9658 15.3278 17.9853 15.202C17.9943 15.1437 18.0154 15.0977 18.0487 15.0639C18.2068 14.9027 18.3419 14.7152 18.454 14.5016C18.5926 14.2374 18.733 13.938 18.8754 13.6033C18.9076 13.5277 18.9292 13.4491 18.9405 13.3674C18.9688 13.1635 18.5911 13.0936 18.4904 13.0924C17.7158 13.0809 17.3018 13.0924 16.7176 13.0322C16.7061 13.031 16.6945 13.0338 16.6844 13.0404C16.6743 13.0469 16.666 13.0568 16.6606 13.0689C16.4866 13.456 16.2518 13.9747 15.9565 14.6249C15.899 14.751 15.8574 14.8512 15.8318 14.9254C15.7581 15.1393 15.7372 15.4526 15.6974 15.6346C15.6489 15.8562 15.5496 16.0812 15.3996 16.3094C15.3762 16.3448 15.3508 16.4216 15.3234 16.5397C15.2426 16.8901 15.1763 17.2267 15.1247 17.5494C15.0512 18.0095 15.0037 18.4928 15.31 18.8416C15.3434 18.8794 15.3973 18.931 15.4717 18.9965C15.6839 19.1824 15.818 19.4993 15.9039 19.7747C15.9115 19.799 15.9118 19.8257 15.9048 19.8503C15.8978 19.8749 15.884 19.8959 15.8655 19.91C15.8327 19.9344 15.7894 19.9511 15.7355 19.9599C15.4141 20.0117 15.1296 20.0133 14.8821 19.9646C14.7012 19.9291 14.6847 19.7875 14.6806 19.5835C14.6784 19.4625 14.7032 19.3615 14.7551 19.2806C14.7613 19.2709 14.7658 19.2598 14.7683 19.248C14.7708 19.2362 14.7714 19.224 14.7699 19.212C14.7372 18.9398 14.6237 18.84 14.4573 18.6576C14.3158 18.5024 14.3963 18.1963 14.4492 17.9676C14.4631 17.9083 14.534 17.646 14.6618 17.1806C14.6885 17.083 14.7202 16.9154 14.7568 16.6778C14.8632 15.9898 14.9387 15.1373 15.0219 14.498C15.068 14.145 15.1225 13.7261 15.1856 13.2413C15.1874 13.228 15.1905 13.1857 15.1947 13.1144C15.1949 13.1117 15.1946 13.109 15.1938 13.1065C15.193 13.104 15.1917 13.1017 15.1901 13.0998C15.1885 13.098 15.1866 13.0966 15.1845 13.0957C15.1824 13.0948 15.1801 13.0945 15.1779 13.0948C14.4825 13.1767 13.8822 13.2569 13.2323 13.2166C12.9778 13.2009 12.6825 13.1547 12.3465 13.0781C11.8544 12.9655 11.3666 12.8189 10.883 12.6383C10.8747 12.6351 10.8656 12.636 10.8578 12.6407C10.85 12.6454 10.844 12.6536 10.8412 12.6634C10.753 12.9807 10.6711 13.2772 10.4949 13.5147C10.3531 13.7058 10.1823 13.8818 10.0583 14.0842C9.89015 14.3591 9.74966 14.6177 9.53169 14.8372C9.52495 14.8439 9.4296 14.9333 9.24565 15.1054C8.73692 15.5807 8.84002 16.1893 9.0243 16.8267C9.21331 17.4796 9.30967 17.8467 9.47744 18.2554C9.55403 18.4427 9.68812 18.6134 9.87971 18.7674C10.0455 18.9004 10.1627 18.9881 10.2314 19.0304C10.2462 19.0397 10.2598 19.0515 10.2719 19.0655C10.4339 19.2539 10.5525 19.5488 10.6361 19.7795C10.6429 19.7982 10.6445 19.8191 10.6407 19.8389C10.6369 19.8588 10.6278 19.8767 10.6148 19.89C10.5834 19.9225 10.5441 19.9435 10.4969 19.9531C10.222 20.0081 9.93496 20.0128 9.63579 19.967C9.52147 19.9495 9.45285 19.8771 9.42994 19.7499C9.40591 19.6177 9.39659 19.5143 9.40198 19.4399C9.4058 19.3848 9.43791 19.335 9.49833 19.2906C9.50661 19.2845 9.51262 19.275 9.51512 19.2638C9.51763 19.2527 9.51644 19.2409 9.51181 19.2307C9.4725 19.1448 9.41815 19.0809 9.34875 19.0392C9.33448 19.0307 9.31898 19.0252 9.30293 19.0228C9.1311 18.9981 8.96703 18.959 8.92694 18.747C8.87303 18.4616 8.81003 18.2036 8.73793 17.9732C8.5277 17.3009 8.28457 16.648 8.00853 16.0145C7.9297 15.8336 7.87006 15.6676 7.82964 15.5165C7.81668 15.4681 7.81633 15.4162 7.82862 15.3676C7.85311 15.2697 7.89769 15.1747 7.96238 15.0827C8.07311 14.9249 8.18451 14.758 8.29659 14.5818C8.46908 14.3108 8.59947 14.0223 8.5961 13.6935C8.59603 13.6899 8.59511 13.6865 8.59345 13.6836C8.59178 13.6807 8.58944 13.6784 8.58671 13.677C8.58397 13.6756 8.58096 13.6752 8.57802 13.6758C8.57508 13.6763 8.57235 13.6779 8.57016 13.6803C8.30299 13.9768 7.96103 14.1476 7.59852 14.2614C7.47285 14.3009 7.29833 14.4134 7.15077 14.5271C6.77254 14.8182 6.36151 15.0848 5.91769 15.3269C5.82785 15.3761 5.73352 15.4802 5.63469 15.639C5.39998 16.0171 5.16527 16.4405 4.93056 16.9093C4.81174 17.1471 4.70854 17.3943 4.62094 17.6508C4.57108 17.7972 4.49561 17.8367 4.36085 17.8906C4.10884 17.9908 3.92927 18.1772 3.73723 18.3591C3.70669 18.3881 3.66873 18.4133 3.62336 18.4346C3.36754 18.5551 3.14338 18.6478 2.95089 18.7127C2.93728 18.7173 2.92277 18.7164 2.90965 18.7101C2.89654 18.7038 2.88556 18.6925 2.87846 18.678C2.85802 18.6373 2.84589 18.5897 2.84207 18.5351C2.81332 18.1376 2.89171 17.7799 3.07723 17.462C3.12238 17.3846 3.17022 17.3383 3.25681 17.3475C3.35563 17.3578 3.45199 17.3848 3.54587 17.4285C3.6173 17.462 3.68164 17.5239 3.75307 17.5678C3.75921 17.5716 3.76603 17.5736 3.77294 17.5737C3.77986 17.5738 3.78668 17.5719 3.79282 17.5682C3.92556 17.4867 3.92085 17.3754 3.93062 17.2146C3.93187 17.193 3.93714 17.1719 3.94605 17.153C3.95496 17.134 3.96729 17.1176 3.98216 17.1048C4.07493 17.0247 4.15354 16.9512 4.218 16.8841C4.30245 16.7963 4.396 16.6543 4.49864 16.4579C4.67653 16.1182 4.78097 15.9197 4.81197 15.8625C5.04207 15.4371 5.21019 14.9661 5.3217 14.5866C5.38235 14.3803 5.47028 14.2119 5.64177 14.1201C5.78933 14.0411 5.91253 13.9708 6.01135 13.9094C6.42125 13.6542 6.70325 13.2699 6.85732 12.7564C6.90112 12.61 6.92201 12.3521 6.93616 12.1434C6.9703 11.6326 7.03948 11.1254 7.14369 10.6217C7.17199 10.485 7.21074 10.3558 7.25993 10.2342C7.26138 10.2306 7.26201 10.2265 7.26175 10.2225C7.2615 10.2184 7.26037 10.2145 7.25847 10.2112C7.25657 10.2078 7.25397 10.2051 7.25092 10.2032C7.24787 10.2014 7.24448 10.2005 7.24106 10.2007C7.19165 10.2031 7.13976 10.2172 7.08541 10.243C6.46483 10.5379 6.35634 11.3373 6.15252 11.991C6.02966 12.3853 5.84335 12.7374 5.59359 13.0473C5.47331 13.1966 5.32069 13.3127 5.16033 13.4329C5.15828 13.4342 5.1559 13.4347 5.15359 13.4342C5.15128 13.4337 5.14919 13.4323 5.14768 13.4301C5.14616 13.428 5.14532 13.4253 5.14529 13.4226C5.14526 13.4198 5.14605 13.4171 5.14752 13.4149C5.37392 13.1156 5.51644 12.7745 5.57506 12.3917C5.57574 12.3876 5.57518 12.3834 5.57349 12.3798C5.5718 12.3761 5.56908 12.3733 5.56581 12.3718C5.56255 12.3704 5.55895 12.3703 5.55565 12.3717C5.55234 12.373 5.54955 12.3757 5.54777 12.3793C5.36404 12.7321 5.13438 12.9955 4.8588 13.1695C4.38174 13.4709 3.89996 13.5549 3.41347 13.4213C3.05792 13.3236 2.76425 13.1733 2.53246 12.9703C2.27888 12.7476 2.05787 12.4874 1.86943 12.1897C1.86828 12.1879 1.86749 12.1857 1.86709 12.1834C1.86669 12.1812 1.86669 12.1788 1.8671 12.1765C1.86752 12.1743 1.86832 12.1721 1.86948 12.1702C1.87063 12.1682 1.8721 12.1666 1.87381 12.1654C1.88054 12.1606 1.88762 12.1598 1.89503 12.163C2.32728 12.3418 2.772 12.426 3.2312 12.3043C3.75846 12.1646 4.2335 11.6573 4.55625 11.1278C4.74492 10.8183 4.87384 10.6087 4.94302 10.4988C5.07891 10.283 5.25567 10.0772 5.47331 9.88143C5.58943 9.77687 5.75014 9.68122 5.95543 9.59449C6.47123 9.37659 7.05374 9.47117 7.5746 9.59329C7.58648 9.59603 7.59874 9.59555 7.61046 9.59188C7.62219 9.58822 7.63307 9.58147 7.64232 9.57214C8.13083 9.07462 8.69009 8.73473 9.32011 8.55249C9.68352 8.44713 10.025 8.4172 10.3446 8.46269C10.7545 8.52122 10.9615 8.55076 10.9656 8.55129C11.6122 8.6327 12.2505 8.62206 12.8805 8.51936C13.0445 8.49249 13.2316 8.43037 13.4418 8.33299C13.546 8.28457 13.7115 8.16484 13.9381 7.97382C14.0529 7.87697 14.2549 7.7208 14.5442 7.50529C14.6207 7.44823 14.6951 7.41151 14.7544 7.35604C14.7572 7.3533 14.7591 7.34959 14.7599 7.34545C14.7608 7.34131 14.7605 7.33697 14.7591 7.33305C14.7577 7.32913 14.7553 7.32583 14.7522 7.32365C14.7491 7.32147 14.7455 7.32051 14.7419 7.32092C14.6121 7.34061 14.4856 7.35444 14.3622 7.36242C13.7087 7.40592 13.2185 7.04595 12.7987 6.48963C12.7968 6.48697 12.7956 6.48365 12.7955 6.48018C12.7953 6.4767 12.796 6.47325 12.7976 6.47031C12.7992 6.46737 12.8015 6.4651 12.8042 6.46384C12.807 6.46258 12.81 6.46239 12.8128 6.46329C12.9831 6.52129 13.1332 6.56905 13.2633 6.60656C13.7587 6.75023 14.2288 6.71006 14.6736 6.48604C14.9326 6.35514 15.1766 6.156 15.4238 5.97122C15.4265 5.96913 15.4287 5.96615 15.43 5.96266C15.4313 5.95917 15.4317 5.95532 15.4312 5.95158C15.4307 5.94785 15.4293 5.94439 15.4272 5.94164C15.425 5.93889 15.4222 5.93696 15.4191 5.9361C15.3428 5.91322 15.26 5.88529 15.1708 5.8523C14.8828 5.74534 14.5644 5.72219 14.2531 5.73736C13.9829 5.75093 13.7207 5.82915 13.4664 5.97202C13.4652 5.97279 13.4639 5.97304 13.4626 5.97272C13.4613 5.9724 13.4602 5.97154 13.4594 5.97028C13.4585 5.96902 13.4581 5.96743 13.4581 5.96579C13.4581 5.96414 13.4585 5.96254 13.4593 5.96124Z" fill="#20863A"/>
</g>
<defs>
<clipPath id="clip0_59_552">
<rect width="24" height="24" fill="white"/>
</clipPath>
</defs>
</svg>
